<?xml version="1.0" encoding="utf-8"?>
<svg version="1.1" xmlns:xlink="http://www.w3.org/1999/xlink" width="36px" height="38px" xmlns="http://www.w3.org/2000/svg">
  <g transform="matrix(1 0 0 1 -296 -1171 )">
    <path d="M 21.3167701863354 18.124248496994  C 21.5652173913044 18.378089512358  21.6894409937888 18.6700066800267  21.6894409937888 19  C 21.6894409937888 19.3299933199733  21.5652173913044 19.6219104876419  21.3167701863354 19.875751503006  L 3.95031055900621 37.6192384769539  C 3.70186335403727 37.873079492318  3.41614906832298 38  3.09316770186335 38  C 2.77018633540373 38  2.48447204968944 37.873079492318  2.2360248447205 37.6192384769539  L 0.372670807453416 35.7154308617234  C 0.124223602484472 35.4615898463594  0 35.1696726786907  0 34.8396793587174  C 0 34.5096860387441  0.124223602484472 34.2177688710755  0.372670807453416 33.9639278557114  L 15.0186335403727 19  L 0.372670807453416 4.03607214428858  C 0.124223602484472 3.78223112892451  0 3.49031396125584  0 3.16032064128257  C 0 2.83032732130928  0.124223602484472 2.53841015364061  0.372670807453416 2.28456913827655  L 2.2360248447205 0.380761523046093  C 2.48447204968944 0.126920507682029  2.77018633540373 0  3.09316770186335 0  C 3.41614906832298 0  3.70186335403727 0.126920507682029  3.95031055900621 0.380761523046093  L 21.3167701863354 18.124248496994  Z M 35.6273291925466 18.124248496994  C 35.8757763975155 18.378089512358  36 18.6700066800267  36 19  C 36 19.3299933199733  35.8757763975155 19.6219104876419  35.6273291925466 19.875751503006  L 18.2608695652174 37.6192384769539  C 18.0124223602485 37.873079492318  17.7267080745342 38  17.4037267080745 38  C 17.0807453416149 38  16.7950310559006 37.873079492318  16.5465838509317 37.6192384769539  L 14.6832298136646 35.7154308617234  C 14.4347826086957 35.4615898463594  14.3105590062112 35.1696726786907  14.3105590062112 34.8396793587174  C 14.3105590062112 34.5096860387441  14.4347826086957 34.2177688710755  14.6832298136646 33.9639278557114  L 29.3291925465839 19  L 14.6832298136646 4.03607214428858  C 14.4347826086957 3.78223112892451  14.3105590062112 3.49031396125584  14.3105590062112 3.16032064128257  C 14.3105590062112 2.83032732130928  14.4347826086957 2.53841015364061  14.6832298136646 2.28456913827655  L 16.5465838509317 0.380761523046093  C 16.7950310559006 0.126920507682029  17.0807453416149 0  17.4037267080745 0  C 17.7267080745342 0  18.0124223602485 0.126920507682029  18.2608695652174 0.380761523046093  L 35.6273291925466 18.124248496994  Z " fill-rule="nonzero" fill="#555555" stroke="none" transform="matrix(1 0 0 1 296 1171 )" />
  </g>
</svg>