<?xml version="1.0" encoding="utf-8"?>
<svg version="1.1" xmlns:xlink="http://www.w3.org/1999/xlink" width="96px" height="96px" xmlns="http://www.w3.org/2000/svg">
  <g transform="matrix(1 0 0 1 -210 -1026 )">
    <path d="M 258 1026  C 284.88 1026  306 1047.12  306 1074  C 306 1100.88  284.88 1122  258 1122  C 231.12 1122  210 1100.88  210 1074  C 210 1047.12  231.12 1026  258 1026  Z " fill-rule="nonzero" fill="#02a7f0" stroke="none" />
    <path d="M 258 1026.5  C 284.6 1026.5  305.5 1047.4  305.5 1074  C 305.5 1100.6  284.6 1121.5  258 1121.5  C 231.4 1121.5  210.5 1100.6  210.5 1074  C 210.5 1047.4  231.4 1026.5  258 1026.5  Z " stroke-width="1" stroke="#02a7f0" fill="none" />
  </g>
</svg>