<?xml version="1.0" encoding="utf-8"?>
<svg version="1.1" xmlns:xlink="http://www.w3.org/1999/xlink" width="27px" height="28px" xmlns="http://www.w3.org/2000/svg">
  <g transform="matrix(1 0 0 1 -339 -1060 )">
    <path d="M 15.9875776397516 13.3547094188377  C 16.1739130434783 13.5417501670007  16.2670807453416 13.7568470273881  16.2670807453416 14  C 16.2670807453416 14.2431529726119  16.1739130434783 14.4582498329993  15.9875776397516 14.6452905811623  L 2.96273291925466 27.7194388777555  C 2.77639751552795 27.9064796259185  2.56211180124224 28  2.31987577639752 28  C 2.0776397515528 28  1.86335403726708 27.9064796259185  1.67701863354037 27.7194388777555  L 0.279503105590062 26.3166332665331  C 0.0931677018633541 26.1295925183701  0 25.9144956579826  0 25.6713426853707  C 0 25.4281897127589  0.0931677018633541 25.2130928523714  0.279503105590062 25.0260521042084  L 11.2639751552795 14  L 0.279503105590062 2.97394789579158  C 0.0931677018633541 2.78690714762859  0 2.57181028724115  0 2.32865731462926  C 0 2.08550434201736  0.0931677018633541 1.87040748162992  0.279503105590062 1.68336673346693  L 1.67701863354037 0.280561122244489  C 1.86335403726708 0.0935203740814954  2.0776397515528 0  2.31987577639752 0  C 2.56211180124224 0  2.77639751552795 0.0935203740814954  2.96273291925466 0.280561122244489  L 15.9875776397516 13.3547094188377  Z M 26.7204968944099 13.3547094188377  C 26.9068322981366 13.5417501670007  27 13.7568470273881  27 14  C 27 14.2431529726119  26.9068322981366 14.4582498329993  26.7204968944099 14.6452905811623  L 13.695652173913 27.7194388777555  C 13.5093167701863 27.9064796259185  13.2950310559006 28  13.0527950310559 28  C 12.8105590062112 28  12.5962732919255 27.9064796259185  12.4099378881988 27.7194388777555  L 11.0124223602484 26.3166332665331  C 10.8260869565217 26.1295925183701  10.7329192546584 25.9144956579826  10.7329192546584 25.6713426853707  C 10.7329192546584 25.4281897127589  10.8260869565217 25.2130928523714  11.0124223602484 25.0260521042084  L 21.9968944099379 14  L 11.0124223602484 2.97394789579158  C 10.8260869565217 2.78690714762859  10.7329192546584 2.57181028724115  10.7329192546584 2.32865731462926  C 10.7329192546584 2.08550434201736  10.8260869565217 1.87040748162992  11.0124223602484 1.68336673346693  L 12.4099378881988 0.280561122244489  C 12.5962732919255 0.0935203740814954  12.8105590062112 0  13.0527950310559 0  C 13.2950310559006 0  13.5093167701863 0.0935203740814954  13.695652173913 0.280561122244489  L 26.7204968944099 13.3547094188377  Z " fill-rule="nonzero" fill="#555555" stroke="none" transform="matrix(1 0 0 1 339 1060 )" />
  </g>
</svg>