<?xml version="1.0" encoding="utf-8"?>
<svg version="1.1" xmlns:xlink="http://www.w3.org/1999/xlink" width="96px" height="96px" xmlns="http://www.w3.org/2000/svg">
  <g transform="matrix(1 0 0 1 -587 -1026 )">
    <path d="M 635 1026  C 661.88 1026  683 1047.12  683 1074  C 683 1100.88  661.88 1122  635 1122  C 608.12 1122  587 1100.88  587 1074  C 587 1047.12  608.12 1026  635 1026  Z " fill-rule="nonzero" fill="#ec808d" stroke="none" />
    <path d="M 635 1026.5  C 661.6 1026.5  682.5 1047.4  682.5 1074  C 682.5 1100.6  661.6 1121.5  635 1121.5  C 608.4 1121.5  587.5 1100.6  587.5 1074  C 587.5 1047.4  608.4 1026.5  635 1026.5  Z " stroke-width="1" stroke="#f59a23" fill="none" />
  </g>
</svg>