<?xml version="1.0" encoding="utf-8"?>
<svg version="1.1" xmlns:xlink="http://www.w3.org/1999/xlink" width="96px" height="96px" xmlns="http://www.w3.org/2000/svg">
  <g transform="matrix(1 0 0 1 -775 -1026 )">
    <path d="M 823 1026  C 849.88 1026  871 1047.12  871 1074  C 871 1100.88  849.88 1122  823 1122  C 796.12 1122  775 1100.88  775 1074  C 775 1047.12  796.12 1026  823 1026  Z " fill-rule="nonzero" fill="#00bfbf" stroke="none" />
    <path d="M 823 1026.5  C 849.6 1026.5  870.5 1047.4  870.5 1074  C 870.5 1100.6  849.6 1121.5  823 1121.5  C 796.4 1121.5  775.5 1100.6  775.5 1074  C 775.5 1047.4  796.4 1026.5  823 1026.5  Z " stroke-width="1" stroke="#00bfbf" fill="none" />
  </g>
</svg>