<?xml version="1.0" encoding="utf-8"?>
<svg version="1.1" xmlns:xlink="http://www.w3.org/1999/xlink" width="170px" height="170px" xmlns="http://www.w3.org/2000/svg">
  <g transform="matrix(1 0 0 1 -373 -1830 )">
    <path d="M 458 1830  C 505.6 1830  543 1867.4  543 1915  C 543 1962.6  505.6 2000  458 2000  C 410.4 2000  373 1962.6  373 1915  C 373 1867.4  410.4 1830  458 1830  Z " fill-rule="nonzero" fill="#02a7f0" stroke="none" />
    <path d="M 458 1830.5  C 505.32 1830.5  542.5 1867.68  542.5 1915  C 542.5 1962.32  505.32 1999.5  458 1999.5  C 410.68 1999.5  373.5 1962.32  373.5 1915  C 373.5 1867.68  410.68 1830.5  458 1830.5  Z " stroke-width="1" stroke="#02a7f0" fill="none" />
  </g>
</svg>