<?xml version="1.0" encoding="utf-8"?>
<svg version="1.1" xmlns:xlink="http://www.w3.org/1999/xlink" width="48px" height="50px" xmlns="http://www.w3.org/2000/svg">
  <g transform="matrix(1 0 0 1 -602 -1890 )">
    <path d="M 28.4223602484472 23.8476953907816  C 28.7536231884058 24.1816967267869  28.9192546583851 24.5657982631931  28.9192546583851 25  C 28.9192546583851 25.4342017368069  28.7536231884058 25.8183032732131  28.4223602484472 26.1523046092184  L 5.26708074534162 49.498997995992  C 4.93581780538302 49.8329993319973  4.55486542443064 50  4.12422360248447 50  C 3.6935817805383 50  3.31262939958592 49.8329993319973  2.98136645962733 49.498997995992  L 0.496894409937888 46.9939879759519  C 0.165631469979296 46.6599866399466  0 46.2758851035404  0 45.8416833667335  C 0 45.4074816299265  0.165631469979296 45.0233800935204  0.496894409937888 44.689378757515  L 20.0248447204969 25  L 0.496894409937888 5.31062124248497  C 0.165631469979296 4.97661990647962  0 4.59251837007348  0 4.15831663326653  C 0 3.72411489645958  0.165631469979296 3.34001336005343  0.496894409937888 3.00601202404809  L 2.98136645962733 0.501002004008017  C 3.31262939958592 0.16700066800267  3.6935817805383 0  4.12422360248447 0  C 4.55486542443064 0  4.93581780538302 0.16700066800267  5.26708074534162 0.501002004008017  L 28.4223602484472 23.8476953907816  Z M 47.5031055900621 23.8476953907816  C 47.8343685300207 24.1816967267869  48 24.5657982631931  48 25  C 48 25.4342017368069  47.8343685300207 25.8183032732131  47.5031055900621 26.1523046092184  L 24.3478260869565 49.498997995992  C 24.0165631469979 49.8329993319973  23.6356107660455 50  23.2049689440994 50  C 22.7743271221532 50  22.3933747412008 49.8329993319973  22.0621118012422 49.498997995992  L 19.5776397515528 46.9939879759519  C 19.2463768115942 46.6599866399466  19.0807453416149 46.2758851035404  19.0807453416149 45.8416833667335  C 19.0807453416149 45.4074816299265  19.2463768115942 45.0233800935204  19.5776397515528 44.689378757515  L 39.1055900621118 25  L 19.5776397515528 5.31062124248497  C 19.2463768115942 4.97661990647962  19.0807453416149 4.59251837007348  19.0807453416149 4.15831663326653  C 19.0807453416149 3.72411489645958  19.2463768115942 3.34001336005343  19.5776397515528 3.00601202404809  L 22.0621118012422 0.501002004008017  C 22.3933747412008 0.16700066800267  22.7743271221532 0  23.2049689440994 0  C 23.6356107660455 0  24.0165631469979 0.16700066800267  24.3478260869565 0.501002004008017  L 47.5031055900621 23.8476953907816  Z " fill-rule="nonzero" fill="#555555" stroke="none" transform="matrix(1 0 0 1 602 1890 )" />
  </g>
</svg>