<?xml version="1.0" encoding="utf-8"?>
<svg version="1.1" xmlns:xlink="http://www.w3.org/1999/xlink" width="170px" height="170px" xmlns="http://www.w3.org/2000/svg">
  <g transform="matrix(1 0 0 1 -708 -1830 )">
    <path d="M 793 1830  C 840.6 1830  878 1867.4  878 1915  C 878 1962.6  840.6 2000  793 2000  C 745.4 2000  708 1962.6  708 1915  C 708 1867.4  745.4 1830  793 1830  Z " fill-rule="nonzero" fill="#f59a23" stroke="none" />
    <path d="M 793 1830.5  C 840.32 1830.5  877.5 1867.68  877.5 1915  C 877.5 1962.32  840.32 1999.5  793 1999.5  C 745.68 1999.5  708.5 1962.32  708.5 1915  C 708.5 1867.68  745.68 1830.5  793 1830.5  Z " stroke-width="1" stroke="#f59a23" fill="none" />
  </g>
</svg>