<?xml version="1.0" encoding="utf-8"?>
<svg version="1.1" xmlns:xlink="http://www.w3.org/1999/xlink" width="170px" height="170px" xmlns="http://www.w3.org/2000/svg">
  <g transform="matrix(1 0 0 1 -1043 -1830 )">
    <path d="M 1128 1830  C 1175.6 1830  1213 1867.4  1213 1915  C 1213 1962.6  1175.6 2000  1128 2000  C 1080.4 2000  1043 1962.6  1043 1915  C 1043 1867.4  1080.4 1830  1128 1830  Z " fill-rule="nonzero" fill="#ec808d" stroke="none" />
    <path d="M 1128 1830.5  C 1175.32 1830.5  1212.5 1867.68  1212.5 1915  C 1212.5 1962.32  1175.32 1999.5  1128 1999.5  C 1080.68 1999.5  1043.5 1962.32  1043.5 1915  C 1043.5 1867.68  1080.68 1830.5  1128 1830.5  Z " stroke-width="1" stroke="#f59a23" fill="none" />
  </g>
</svg>