<?xml version="1.0" encoding="utf-8"?>
<svg version="1.1" xmlns:xlink="http://www.w3.org/1999/xlink" width="170px" height="170px" xmlns="http://www.w3.org/2000/svg">
  <g transform="matrix(1 0 0 1 -1378 -1830 )">
    <path d="M 1463 1830  C 1510.6 1830  1548 1867.4  1548 1915  C 1548 1962.6  1510.6 2000  1463 2000  C 1415.4 2000  1378 1962.6  1378 1915  C 1378 1867.4  1415.4 1830  1463 1830  Z " fill-rule="nonzero" fill="#00bfbf" stroke="none" />
    <path d="M 1463 1830.5  C 1510.32 1830.5  1547.5 1867.68  1547.5 1915  C 1547.5 1962.32  1510.32 1999.5  1463 1999.5  C 1415.68 1999.5  1378.5 1962.32  1378.5 1915  C 1378.5 1867.68  1415.68 1830.5  1463 1830.5  Z " stroke-width="1" stroke="#00bfbf" fill="none" />
  </g>
</svg>