<?xml version="1.0" encoding="utf-8"?>
<svg version="1.1" xmlns:xlink="http://www.w3.org/1999/xlink" width="127px" height="127px" xmlns="http://www.w3.org/2000/svg">
  <g transform="matrix(1 0 0 1 -377 -1194 )">
    <path d="M 440.5 1194  C 476.06 1194  504 1221.94  504 1257.5  C 504 1293.06  476.06 1321  440.5 1321  C 404.94 1321  377 1293.06  377 1257.5  C 377 1221.94  404.94 1194  440.5 1194  Z " fill-rule="nonzero" fill="#f59a23" stroke="none" />
    <path d="M 440.5 1194.5  C 475.78 1194.5  503.5 1222.22  503.5 1257.5  C 503.5 1292.78  475.78 1320.5  440.5 1320.5  C 405.22 1320.5  377.5 1292.78  377.5 1257.5  C 377.5 1222.22  405.22 1194.5  440.5 1194.5  Z " stroke-width="1" stroke="#f59a23" fill="none" />
  </g>
</svg>