<?xml version="1.0" encoding="utf-8"?>
<svg version="1.1" xmlns:xlink="http://www.w3.org/1999/xlink" width="127px" height="127px" xmlns="http://www.w3.org/2000/svg">
  <g transform="matrix(1 0 0 1 -631 -1110 )">
    <path d="M 694.5 1110  C 730.06 1110  758 1137.94  758 1173.5  C 758 1209.06  730.06 1237  694.5 1237  C 658.94 1237  631 1209.06  631 1173.5  C 631 1137.94  658.94 1110  694.5 1110  Z " fill-rule="nonzero" fill="#ec808d" stroke="none" />
    <path d="M 694.5 1110.5  C 729.78 1110.5  757.5 1138.22  757.5 1173.5  C 757.5 1208.78  729.78 1236.5  694.5 1236.5  C 659.22 1236.5  631.5 1208.78  631.5 1173.5  C 631.5 1138.22  659.22 1110.5  694.5 1110.5  Z " stroke-width="1" stroke="#f59a23" fill="none" />
  </g>
</svg>