<?xml version="1.0" encoding="utf-8"?>
<svg version="1.1" xmlns:xlink="http://www.w3.org/1999/xlink" width="127px" height="127px" xmlns="http://www.w3.org/2000/svg">
  <g transform="matrix(1 0 0 1 -877 -1110 )">
    <path d="M 940.5 1110  C 976.06 1110  1004 1137.94  1004 1173.5  C 1004 1209.06  976.06 1237  940.5 1237  C 904.94 1237  877 1209.06  877 1173.5  C 877 1137.94  904.94 1110  940.5 1110  Z " fill-rule="nonzero" fill="#00bfbf" stroke="none" />
    <path d="M 940.5 1110.5  C 975.78 1110.5  1003.5 1138.22  1003.5 1173.5  C 1003.5 1208.78  975.78 1236.5  940.5 1236.5  C 905.22 1236.5  877.5 1208.78  877.5 1173.5  C 877.5 1138.22  905.22 1110.5  940.5 1110.5  Z " stroke-width="1" stroke="#00bfbf" fill="none" />
  </g>
</svg>